<?xml version="1.0" encoding="UTF-8" standalone="no"?>
<!-- Created with Inkscape (http://www.inkscape.org/) -->

<svg
   width="210mm"
   height="297mm"
   viewBox="0 0 210 297"
   version="1.1"
   id="svg5"
   sodipodi:docname="monster.svg"
   inkscape:version="1.1.1 (3bf5ae0d25, 2021-09-20)"
   xmlns:inkscape="http://www.inkscape.org/namespaces/inkscape"
   xmlns:sodipodi="http://sodipodi.sourceforge.net/DTD/sodipodi-0.dtd"
   xmlns="http://www.w3.org/2000/svg"
   xmlns:svg="http://www.w3.org/2000/svg">
  <sodipodi:namedview
     id="namedview7"
     pagecolor="#ffffff"
     bordercolor="#cccccc"
     borderopacity="1"
     inkscape:pageshadow="0"
     inkscape:pageopacity="1"
     inkscape:pagecheckerboard="0"
     inkscape:document-units="mm"
     showgrid="false"
     inkscape:zoom="0.92648709"
     inkscape:cx="298.43913"
     inkscape:cy="371.83465"
     inkscape:window-width="1366"
     inkscape:window-height="705"
     inkscape:window-x="-8"
     inkscape:window-y="-8"
     inkscape:window-maximized="1"
     inkscape:current-layer="layer1" />
  <defs
     id="defs2" />
  <g
     inkscape:label="Layer 1"
     inkscape:groupmode="layer"
     id="layer1">
    <path
       style="fill:none;stroke:#000000;stroke-width:0.258315px;stroke-linecap:butt;stroke-linejoin:miter;stroke-opacity:1"
       d="m 70.03414,50.621449 c -5.753433,1.594976 -7.81291,8.172236 -11.856444,12.667087 -1.796697,1.997236 -4.811311,2.41278 -6.185964,4.825559 -1.944979,3.413776 -1.429691,13.294008 -1.030998,17.492644 0.107152,1.128421 1.509713,2.28428 1.546492,3.015974 0.456322,9.077177 -0.618927,14.372367 2.577488,22.921397 0.895317,2.39458 7.117734,6.57708 9.278956,7.84153 1.522411,0.8907 3.531444,-0.66329 5.154967,0.6032 2.442313,1.9052 10.130851,9.0111 13.918439,7.23833 1.319147,-0.61744 3.467236,-3.6825 4.639474,-4.82555 1.406071,-1.37107 4.14707,-1.8366 5.154979,-3.01598 0.238302,-0.27884 -0.155618,-1.4454 0,-1.80958 1.072695,-2.51036 -0.03556,0.64484 1.030995,-0.6032 0.1215,-0.14217 -0.1215,-0.46102 0,-0.6032 0.604081,-0.70683 2.001601,-0.80207 2.577491,-1.20638 0.62514,-0.43889 0.96328,-1.29775 1.54649,-1.80958 10.290155,-8.02715 0.79303,-0.10606 6.701475,-6.03196 1.97837,-1.98423 4.75414,-2.8975 6.70146,-4.82555 1.20937,-1.1974 1.97279,-2.91159 3.09299,-4.22236 0.12151,-0.14219 0.46116,0.19074 0.5155,0 1.0525,-3.694666 0.94094,-21.794961 0,-24.730985 -0.56715,-1.769665 -3.01997,-3.103967 -3.60849,-4.825557 -0.62496,-1.828243 -0.22183,-4.13832 -1.03099,-6.031946 -1.90722,-4.463384 -6.2758,-6.137065 -9.27896,-9.651112 -0.99875,-1.168681 -1.785725,-3.304571 -3.092985,-4.222366 -2.2364,-1.570116 -4.415999,-1.266663 -6.701471,-2.412776 -0.446719,-0.224022 -0.626607,-0.890933 -1.030997,-1.20639 -1.246797,-0.972607 0.414282,2.264736 -1.546491,-0.603196 -0.48005,-0.702146 -0.584341,-1.681076 -1.030996,-2.412779 -1.984005,-3.250146 -1.006024,-0.579816 -3.608478,-3.015971 -0.300035,-0.280858 -0.302363,-0.832304 -0.515502,-1.20639 -0.914324,-1.604809 -2.745589,-1.206389 -4.123979,-1.206389 -0.485963,0 -2.543202,-0.321657 -3.092983,0 -1.909535,1.11719 -1.773005,5.958836 -2.577488,7.841529 -1.280057,2.995635 -4.12398,2.362305 -4.12398,6.031947 z"
       id="path1548" />
    <path
       style="fill:none;stroke:#000000;stroke-width:0.264583px;stroke-linecap:butt;stroke-linejoin:miter;stroke-opacity:1"
       d="M 56.258654,91.670194 H 105.37789"
       id="path1550" />
    <path
       style="fill:none;stroke:#000000;stroke-width:0.264583px;stroke-linecap:butt;stroke-linejoin:miter;stroke-opacity:1"
       d="m 56.258654,91.670194 c 3.990766,2.1641 6.18813,7.370956 10.280769,9.709606 3.998076,2.28462 -0.571156,-1.14231 1.71346,0 0.481639,0.24082 0.66067,0.90149 1.142307,1.14231 0.170285,0.0851 0.486013,-0.17028 0.571156,0 0.170283,0.34057 -0.269246,0.87306 0,1.14231 1.60819,1.60819 1.40645,-0.009 2.855766,0.57115 0.637347,0.25494 1.076119,0.88737 1.713463,1.14231 1.349672,0.53987 8.816666,1.38632 10.280769,1.14231 1.430197,-0.23837 2.59924,-1.33196 3.998077,-1.71347 1.117258,-0.3047 2.313416,-0.253 3.426923,-0.57115 1.035542,-0.29587 1.443638,-1.61183 2.28462,-2.28461 0.664851,-0.53189 1.682561,-0.54026 2.284611,-1.14231 0.8496,-0.8496 -0.9023,-2.19348 -0.57115,-2.85577 0.36123,-0.72246 1.22882,-1.06728 1.71346,-1.713456 0.36123,-0.48164 0.0702,-1.37951 0.57115,-1.71346 1.630935,-1.08729 3.509465,-1.76849 5.140395,-2.85577 0.67207,-0.44805 0.90572,-1.71346 1.71346,-1.71346 0.57115,0 0,1.14231 0,1.71346"
       id="path1665" />
    <path
       style="fill:none;stroke:#000000;stroke-width:0.290585px;stroke-linecap:butt;stroke-linejoin:miter;stroke-opacity:1"
       d="m 80.821435,90.525004 c 0.864769,4.68301 -1.216286,10.981196 0.561386,15.420216"
       id="path1669" />
    <path
       style="fill:none;stroke:#000000;stroke-width:0.290585px;stroke-linecap:butt;stroke-linejoin:miter;stroke-opacity:1"
       d="m 86.81855,91.096154 c 0.864769,4.68301 -1.216286,10.981196 0.561386,15.420216"
       id="path1755" />
    <path
       style="fill:none;stroke:#000000;stroke-width:0.255803px;stroke-linecap:butt;stroke-linejoin:miter;stroke-opacity:1"
       d="m 92.811887,91.955624 c 0.882552,3.55591 -1.241298,8.338246 0.572931,11.708886"
       id="path1757" />
    <path
       style="fill:none;stroke:#000000;stroke-width:0.255803px;stroke-linecap:butt;stroke-linejoin:miter;stroke-opacity:1"
       d="m 68.823425,91.670044 c 0.882552,3.55591 -1.241298,8.338246 0.572931,11.708886"
       id="path1759" />
    <path
       style="fill:none;stroke:#000000;stroke-width:0.280452px;stroke-linecap:butt;stroke-linejoin:miter;stroke-opacity:1"
       d="m 75.108796,91.668304 c 0.86995,4.33612 -1.223572,10.167776 0.56475,14.277976"
       id="path1761" />
    <path
       style="fill:none;stroke:#000000;stroke-width:0.19956px;stroke-linecap:butt;stroke-linejoin:miter;stroke-opacity:1"
       d="m 62.533636,91.957274 c 0.916369,2.08428 -1.288861,4.887426 0.594885,6.863116"
       id="path1763" />
    <path
       style="fill:none;stroke:#000000;stroke-width:0.264583px;stroke-linecap:butt;stroke-linejoin:miter;stroke-opacity:1"
       d="m 75.10673,61.684614 c 0.38077,0 1.142307,0.380769 1.142307,0 0,-0.380768 -0.762013,0.01902 -1.142307,0 -1.524145,-0.07621 -3.044401,-0.224584 -4.56923,-0.285576 -0.856046,-0.03424 -1.717714,0.08525 -2.570194,0 -0.133953,-0.01339 -0.180454,-0.369676 -0.285575,-0.285578 -0.475962,0.38077 -0.711306,0.996884 -1.14231,1.427885 -2.828784,2.828785 -3.472674,3.058866 -6.568268,7.139424 -0.799274,1.053587 -1.305943,2.300645 -1.999038,3.426923 -0.09215,0.149744 -0.469947,0.294598 -0.285578,0.571153 0.14935,0.224026 0.421804,0.347128 0.571154,0.571154 0.0528,0.07921 -0.08514,0.243006 0,0.285578 0.994246,0.497123 2.611318,-0.163351 3.426923,-0.571154 0.115231,-0.05761 2.855769,0.937361 2.855769,0.856729 0,-0.212855 -0.285575,-0.358296 -0.285575,-0.571153 0,-0.285576 0.577953,0.06195 0.856729,0 0.676507,-0.150334 1.312994,-0.473147 1.99904,-0.571154 0.659649,-0.09424 1.339387,0.09424 1.999039,0 0.09423,-0.01347 -0.06731,-0.218265 0,-0.285578 0.336555,-0.336555 0.746283,-0.592714 1.142306,-0.856728 2.554587,-1.703057 4.207883,-2.268792 5.997115,-4.569233 0.23377,-0.300561 0,-0.761537 0,-1.142307 0,-2.106535 0.09947,-3.484676 -1.142307,-5.140385 z"
       id="path1946" />
    <path
       style="fill:none;stroke:#000000;stroke-width:0.264583px;stroke-linecap:butt;stroke-linejoin:miter;stroke-opacity:1"
       d="m 99.951922,73.385589 c 0.380768,0 1.142308,-0.380769 1.142308,0 0,0.380768 -0.76201,-0.01902 -1.142308,0 -1.524145,0.07621 -3.044401,0.224584 -4.56923,0.285576 -0.856046,0.03424 -1.717714,-0.08525 -2.570194,0 -0.133953,0.01339 -0.180454,0.369676 -0.285575,0.285578 -0.475962,-0.38077 -0.711306,-0.996884 -1.14231,-1.427885 -2.828784,-2.828785 -3.472674,-3.058866 -6.568268,-7.139424 -0.799274,-1.053587 -1.305943,-2.300645 -1.999038,-3.426923 -0.09215,-0.149744 -0.469947,-0.294598 -0.285578,-0.571153 0.14935,-0.224026 0.421804,-0.347128 0.571154,-0.571154 0.0528,-0.07921 -0.08514,-0.243006 0,-0.285578 0.994246,-0.497123 2.611318,0.163351 3.426923,0.571154 0.115231,0.05761 2.855769,-0.937361 2.855769,-0.856729 0,0.212855 -0.285575,0.358296 -0.285575,0.571153 0,0.285576 0.577953,-0.06195 0.856729,0 0.676507,0.150334 1.312994,0.473147 1.99904,0.571154 0.659649,0.09424 1.339387,-0.09424 1.999039,0 0.09423,0.01347 -0.06731,0.218265 0,0.285578 0.336555,0.336555 0.746283,0.592714 1.142306,0.856728 2.554587,1.703057 4.207883,2.268792 5.997116,4.569233 0.23377,0.300561 0,0.761537 0,1.142307 0,2.106535 0.0995,3.484676 -1.142308,5.140385 z"
       id="path2145" />
    <path
       sodipodi:type="star"
       style="fill:#ff0000;fill-opacity:0.706827;stroke:#000000;stroke-width:1.00157;stroke-miterlimit:4;stroke-dasharray:none;stroke-opacity:1"
       id="path2326"
       inkscape:flatsided="false"
       sodipodi:sides="5"
       sodipodi:cx="53.967293"
       sodipodi:cy="273.07449"
       sodipodi:r1="26.983646"
       sodipodi:r2="13.491823"
       sodipodi:arg1="0.92729522"
       sodipodi:arg2="1.5556137"
       inkscape:rounded="0"
       inkscape:randomized="0"
       d="m 70.157481,294.66141 -15.985355,-8.09665 -15.732168,8.57824 2.760624,-17.70498 -13.019898,-12.31136 17.691514,-2.84562 7.685429,-16.18708 8.173333,15.94628 17.769754,2.30719 -12.640117,12.70098 z"
       transform="matrix(0.39847247,0,0,0.40564414,60.198808,-28.431521)"
       inkscape:transform-center-x="0.05044428"
       inkscape:transform-center-y="-0.99626965" />
  </g>
</svg>
